<svg id="Layer_1" data-name="Layer 1" xmlns="http://www.w3.org/2000/svg" viewBox="0 0 100 100"><defs><style>.cls-1{fill:#d7fdff;}.cls-2{fill:none;stroke:#347591;stroke-linecap:round;stroke-linejoin:round;stroke-width:4px;}</style></defs><title>colored</title><circle class="cls-1" cx="58" cy="49" r="35"/><line class="cls-2" x1="58.74" y1="71.74" x2="73.74" y2="56.74"/><line class="cls-2" x1="50.74" y1="66.74" x2="70.74" y2="46.74"/><line class="cls-2" x1="44" y1="60" x2="64.74" y2="39.74"/><line class="cls-2" x1="43" y1="48" x2="58.74" y2="32.74"/><line class="cls-2" x1="47" y1="22" x2="37" y2="22"/><line class="cls-2" x1="6.83" y1="53.69" x2="13.31" y2="49"/><line class="cls-2" x1="18" y1="55.48" x2="13.31" y2="49"/><path class="cls-2" d="M43,28A31,31,0,0,1,74,59"/><path class="cls-2" d="M22,36.2A30.89,30.89,0,0,1,43,28"/><path class="cls-2" d="M12,59a31.05,31.05,0,0,1,1-7.84"/><path class="cls-2" d="M43,90A31,31,0,0,1,12,59"/><path class="cls-2" d="M74,59A31,31,0,0,1,43,90"/><polyline class="cls-2" points="42 28 42 59 63.74 80.74"/></svg>